<svg xmlns="http://www.w3.org/2000/svg" version="1.1" xmlns:xlink="http://www.w3.org/1999/xlink" xmlns:svgjs="http://svgjs.com/svgjs" width="1920" height="1080" preserveAspectRatio="none" viewBox="0 0 1920 1080"><g mask="url(&quot;#SvgjsMask1030&quot;)" fill="none"><rect width="1920" height="1080" x="0" y="0" fill="rgba(29, 29, 29, 1)"></rect><path d="M0 -38L32.91 -19L32.91 19L0 38L-32.91 19L-32.91 -19zM32.91 19L65.82 38L65.82 76L32.91 95L0 76L0 38zM0 76L32.91 95L32.91 133L0 152L-32.91 133L-32.91 95zM32.91 133L65.82 152L65.82 190L32.91 209L0 190L0 152zM0 190L32.91 209L32.91 247L0 266L-32.91 247L-32.91 209zM32.91 247L65.82 266L65.82 304L32.91 323L0 304L0 266zM0 304L32.91 323L32.91 361L0 380L-32.91 361L-32.91 323zM32.91 361L65.82 380L65.82 418L32.91 437L0 418L0 380zM0 418L32.91 437L32.91 475L0 494L-32.91 475L-32.91 437zM32.91 475L65.82 494L65.82 532L32.91 551L0 532L0 494zM0 532L32.91 551L32.91 589L0 608L-32.91 589L-32.91 551zM32.91 589L65.82 608L65.82 646L32.91 665L0 646L0 608zM0 646L32.91 665L32.91 703L0 722L-32.91 703L-32.91 665zM32.91 703L65.82 722L65.82 760L32.91 779L0 760L0 722zM0 760L32.91 779L32.91 817L0 836L-32.91 817L-32.91 779zM32.91 817L65.82 836L65.82 874L32.91 893L0 874L0 836zM0 874L32.91 893L32.91 931L0 950L-32.91 931L-32.91 893zM32.91 931L65.82 950L65.82 988L32.91 1007L0 988L0 950zM0 988L32.91 1007L32.91 1045L0 1064L-32.91 1045L-32.91 1007zM32.91 1045L65.82 1064L65.82 1102L32.91 1121L0 1102L0 1064zM65.82 -38L98.73 -19L98.73 19L65.82 38L32.91 19L32.91 -19zM98.73 19L131.64 38L131.64 76L98.73 95L65.82 76L65.82 38zM65.82 76L98.73 95L98.73 133L65.82 152L32.91 133L32.91 95zM98.73 133L131.64 152L131.64 190L98.73 209L65.82 190L65.82 152zM65.82 190L98.73 209L98.73 247L65.82 266L32.91 247L32.91 209zM98.73 247L131.64 266L131.64 304L98.73 323L65.82 304L65.82 266zM65.82 304L98.73 323L98.73 361L65.82 380L32.91 361L32.91 323zM98.73 361L131.64 380L131.64 418L98.73 437L65.82 418L65.82 380zM65.82 418L98.73 437L98.73 475L65.82 494L32.91 475L32.91 437zM98.73 475L131.64 494L131.64 532L98.73 551L65.82 532L65.82 494zM65.82 532L98.73 551L98.73 589L65.82 608L32.91 589L32.91 551zM98.73 589L131.64 608L131.64 646L98.73 665L65.82 646L65.82 608zM65.82 646L98.73 665L98.73 703L65.82 722L32.91 703L32.91 665zM98.73 703L131.64 722L131.64 760L98.73 779L65.82 760L65.82 722zM65.82 760L98.73 779L98.73 817L65.82 836L32.91 817L32.91 779zM98.73 817L131.64 836L131.64 874L98.73 893L65.82 874L65.82 836zM65.82 874L98.73 893L98.73 931L65.82 950L32.91 931L32.91 893zM98.73 931L131.64 950L131.64 988L98.73 1007L65.82 988L65.82 950zM65.82 988L98.73 1007L98.73 1045L65.82 1064L32.91 1045L32.91 1007zM98.73 1045L131.64 1064L131.64 1102L98.73 1121L65.82 1102L65.82 1064zM131.64 -38L164.55 -19L164.55 19L131.64 38L98.73 19L98.73 -19zM164.55 19L197.46 38L197.46 76L164.55 95L131.64 76L131.64 38zM131.64 76L164.55 95L164.55 133L131.64 152L98.73 133L98.73 95zM164.55 133L197.46 152L197.46 190L164.55 209L131.64 190L131.64 152zM131.64 190L164.55 209L164.55 247L131.64 266L98.73 247L98.73 209zM164.55 247L197.46 266L197.46 304L164.55 323L131.64 304L131.64 266zM131.64 304L164.55 323L164.55 361L131.64 380L98.73 361L98.73 323zM164.55 361L197.46 380L197.46 418L164.55 437L131.64 418L131.64 380zM131.64 418L164.55 437L164.55 475L131.64 494L98.73 475L98.73 437zM164.55 475L197.46 494L197.46 532L164.55 551L131.64 532L131.64 494zM131.64 532L164.55 551L164.55 589L131.64 608L98.73 589L98.73 551zM164.55 589L197.46 608L197.46 646L164.55 665L131.64 646L131.64 608zM131.64 646L164.55 665L164.55 703L131.64 722L98.73 703L98.73 665zM164.55 703L197.46 722L197.46 760L164.55 779L131.64 760L131.64 722zM131.64 760L164.55 779L164.55 817L131.64 836L98.73 817L98.73 779zM164.55 817L197.46 836L197.46 874L164.55 893L131.64 874L131.64 836zM131.64 874L164.55 893L164.55 931L131.64 950L98.73 931L98.73 893zM164.55 931L197.46 950L197.46 988L164.55 1007L131.64 988L131.64 950zM131.64 988L164.55 1007L164.55 1045L131.64 1064L98.73 1045L98.73 1007zM164.55 1045L197.46 1064L197.46 1102L164.55 1121L131.64 1102L131.64 1064zM197.46 -38L230.37 -19L230.37 19L197.46 38L164.55 19L164.55 -19zM230.37 19L263.28 38L263.28 76L230.37 95L197.46 76L197.46 38zM197.46 76L230.37 95L230.37 133L197.46 152L164.55 133L164.55 95zM230.37 133L263.28 152L263.28 190L230.37 209L197.46 190L197.46 152zM197.46 190L230.37 209L230.37 247L197.46 266L164.55 247L164.55 209zM230.37 247L263.28 266L263.28 304L230.37 323L197.46 304L197.46 266zM197.46 304L230.37 323L230.37 361L197.46 380L164.55 361L164.55 323zM230.37 361L263.28 380L263.28 418L230.37 437L197.46 418L197.46 380zM197.46 418L230.37 437L230.37 475L197.46 494L164.55 475L164.55 437zM230.37 475L263.28 494L263.28 532L230.37 551L197.46 532L197.46 494zM197.46 532L230.37 551L230.37 589L197.46 608L164.55 589L164.55 551zM230.37 589L263.28 608L263.28 646L230.37 665L197.46 646L197.46 608zM197.46 646L230.37 665L230.37 703L197.46 722L164.55 703L164.55 665zM230.37 703L263.28 722L263.28 760L230.37 779L197.46 760L197.46 722zM197.46 760L230.37 779L230.37 817L197.46 836L164.55 817L164.55 779zM230.37 817L263.28 836L263.28 874L230.37 893L197.46 874L197.46 836zM197.46 874L230.37 893L230.37 931L197.46 950L164.55 931L164.55 893zM230.37 931L263.28 950L263.28 988L230.37 1007L197.46 988L197.46 950zM197.46 988L230.37 1007L230.37 1045L197.46 1064L164.55 1045L164.55 1007zM230.37 1045L263.28 1064L263.28 1102L230.37 1121L197.46 1102L197.46 1064zM263.28 -38L296.19 -19L296.19 19L263.28 38L230.37 19L230.37 -19zM296.19 19L329.1 38L329.1 76L296.19 95L263.28 76L263.28 38zM263.28 76L296.19 95L296.19 133L263.28 152L230.37 133L230.37 95zM296.19 133L329.1 152L329.1 190L296.19 209L263.28 190L263.28 152zM263.28 190L296.19 209L296.19 247L263.28 266L230.37 247L230.37 209zM296.19 247L329.1 266L329.1 304L296.19 323L263.28 304L263.28 266zM263.28 304L296.19 323L296.19 361L263.28 380L230.37 361L230.37 323zM296.19 361L329.1 380L329.1 418L296.19 437L263.28 418L263.28 380zM263.28 418L296.19 437L296.19 475L263.28 494L230.37 475L230.37 437zM296.19 475L329.1 494L329.1 532L296.19 551L263.28 532L263.28 494zM263.28 532L296.19 551L296.19 589L263.28 608L230.37 589L230.37 551zM296.19 589L329.1 608L329.1 646L296.19 665L263.28 646L263.28 608zM263.28 646L296.19 665L296.19 703L263.28 722L230.37 703L230.37 665zM296.19 703L329.1 722L329.1 760L296.19 779L263.28 760L263.28 722zM263.28 760L296.19 779L296.19 817L263.28 836L230.37 817L230.37 779zM296.19 817L329.1 836L329.1 874L296.19 893L263.28 874L263.28 836zM263.28 874L296.19 893L296.19 931L263.28 950L230.37 931L230.37 893zM296.19 931L329.1 950L329.1 988L296.19 1007L263.28 988L263.28 950zM263.28 988L296.19 1007L296.19 1045L263.28 1064L230.37 1045L230.37 1007zM296.19 1045L329.1 1064L329.1 1102L296.19 1121L263.28 1102L263.28 1064zM329.1 -38L362.01 -19L362.01 19L329.1 38L296.19 19L296.19 -19zM362.01 19L394.92 38L394.92 76L362.01 95L329.1 76L329.1 38zM329.1 76L362.01 95L362.01 133L329.1 152L296.19 133L296.19 95zM362.01 133L394.92 152L394.92 190L362.01 209L329.1 190L329.1 152zM329.1 190L362.01 209L362.01 247L329.1 266L296.19 247L296.19 209zM362.01 247L394.92 266L394.92 304L362.01 323L329.1 304L329.1 266zM329.1 304L362.01 323L362.01 361L329.1 380L296.19 361L296.19 323zM362.01 361L394.92 380L394.92 418L362.01 437L329.1 418L329.1 380zM329.1 418L362.01 437L362.01 475L329.1 494L296.19 475L296.19 437zM362.01 475L394.92 494L394.92 532L362.01 551L329.1 532L329.1 494zM329.1 532L362.01 551L362.01 589L329.1 608L296.19 589L296.19 551zM362.01 589L394.92 608L394.92 646L362.01 665L329.1 646L329.1 608zM329.1 646L362.01 665L362.01 703L329.1 722L296.19 703L296.19 665zM362.01 703L394.92 722L394.92 760L362.01 779L329.1 760L329.1 722zM329.1 760L362.01 779L362.01 817L329.1 836L296.19 817L296.19 779zM362.01 817L394.92 836L394.92 874L362.01 893L329.1 874L329.1 836zM329.1 874L362.01 893L362.01 931L329.1 950L296.19 931L296.19 893zM362.01 931L394.92 950L394.92 988L362.01 1007L329.1 988L329.1 950zM329.1 988L362.01 1007L362.01 1045L329.1 1064L296.19 1045L296.19 1007zM362.01 1045L394.92 1064L394.92 1102L362.01 1121L329.1 1102L329.1 1064zM394.92 -38L427.83 -19L427.83 19L394.92 38L362.01 19L362.01 -19zM427.83 19L460.74 38L460.74 76L427.83 95L394.92 76L394.92 38zM394.92 76L427.83 95L427.83 133L394.92 152L362.01 133L362.01 95zM427.83 133L460.74 152L460.74 190L427.83 209L394.92 190L394.92 152zM394.92 190L427.83 209L427.83 247L394.92 266L362.01 247L362.01 209zM427.83 247L460.74 266L460.74 304L427.83 323L394.92 304L394.92 266zM394.92 304L427.83 323L427.83 361L394.92 380L362.01 361L362.01 323zM427.83 361L460.74 380L460.74 418L427.83 437L394.92 418L394.92 380zM394.92 418L427.83 437L427.83 475L394.92 494L362.01 475L362.01 437zM427.83 475L460.74 494L460.74 532L427.83 551L394.92 532L394.92 494zM394.92 532L427.83 551L427.83 589L394.92 608L362.01 589L362.01 551zM427.83 589L460.74 608L460.74 646L427.83 665L394.92 646L394.92 608zM394.92 646L427.83 665L427.83 703L394.92 722L362.01 703L362.01 665zM427.83 703L460.74 722L460.74 760L427.83 779L394.92 760L394.92 722zM394.92 760L427.83 779L427.83 817L394.92 836L362.01 817L362.01 779zM427.83 817L460.74 836L460.74 874L427.83 893L394.92 874L394.92 836zM394.92 874L427.83 893L427.83 931L394.92 950L362.01 931L362.01 893zM427.83 931L460.74 950L460.74 988L427.83 1007L394.92 988L394.92 950zM394.92 988L427.83 1007L427.83 1045L394.92 1064L362.01 1045L362.01 1007zM427.83 1045L460.74 1064L460.74 1102L427.83 1121L394.92 1102L394.92 1064zM460.74 -38L493.65 -19L493.65 19L460.74 38L427.83 19L427.83 -19zM493.65 19L526.56 38L526.56 76L493.65 95L460.74 76L460.74 38zM460.74 76L493.65 95L493.65 133L460.74 152L427.83 133L427.83 95zM493.65 133L526.56 152L526.56 190L493.65 209L460.74 190L460.74 152zM460.74 190L493.65 209L493.65 247L460.74 266L427.83 247L427.83 209zM493.65 247L526.56 266L526.56 304L493.65 323L460.74 304L460.74 266zM460.74 304L493.65 323L493.65 361L460.74 380L427.83 361L427.83 323zM493.65 361L526.56 380L526.56 418L493.65 437L460.74 418L460.74 380zM460.74 418L493.65 437L493.65 475L460.74 494L427.83 475L427.83 437zM493.65 475L526.56 494L526.56 532L493.65 551L460.74 532L460.74 494zM460.74 532L493.65 551L493.65 589L460.74 608L427.83 589L427.83 551zM493.65 589L526.56 608L526.56 646L493.65 665L460.74 646L460.74 608zM460.74 646L493.65 665L493.65 703L460.74 722L427.83 703L427.83 665zM493.65 703L526.56 722L526.56 760L493.65 779L460.74 760L460.74 722zM460.74 760L493.65 779L493.65 817L460.74 836L427.83 817L427.83 779zM493.65 817L526.56 836L526.56 874L493.65 893L460.74 874L460.74 836zM460.74 874L493.65 893L493.65 931L460.74 950L427.83 931L427.83 893zM493.65 931L526.56 950L526.56 988L493.65 1007L460.74 988L460.74 950zM460.74 988L493.65 1007L493.65 1045L460.74 1064L427.83 1045L427.83 1007zM493.65 1045L526.56 1064L526.56 1102L493.65 1121L460.74 1102L460.74 1064zM526.56 -38L559.47 -19L559.47 19L526.56 38L493.65 19L493.65 -19zM559.47 19L592.38 38L592.38 76L559.47 95L526.56 76L526.56 38zM526.56 76L559.47 95L559.47 133L526.56 152L493.65 133L493.65 95zM559.47 133L592.38 152L592.38 190L559.47 209L526.56 190L526.56 152zM526.56 190L559.47 209L559.47 247L526.56 266L493.65 247L493.65 209zM559.47 247L592.38 266L592.38 304L559.47 323L526.56 304L526.56 266zM526.56 304L559.47 323L559.47 361L526.56 380L493.65 361L493.65 323zM559.47 361L592.38 380L592.38 418L559.47 437L526.56 418L526.56 380zM526.56 418L559.47 437L559.47 475L526.56 494L493.65 475L493.65 437zM559.47 475L592.38 494L592.38 532L559.47 551L526.56 532L526.56 494zM526.56 532L559.47 551L559.47 589L526.56 608L493.65 589L493.65 551zM559.47 589L592.38 608L592.38 646L559.47 665L526.56 646L526.56 608zM526.56 646L559.47 665L559.47 703L526.56 722L493.65 703L493.65 665zM559.47 703L592.38 722L592.38 760L559.47 779L526.56 760L526.56 722zM526.56 760L559.47 779L559.47 817L526.56 836L493.65 817L493.65 779zM559.47 817L592.38 836L592.38 874L559.47 893L526.56 874L526.56 836zM526.56 874L559.47 893L559.47 931L526.56 950L493.65 931L493.65 893zM559.47 931L592.38 950L592.38 988L559.47 1007L526.56 988L526.56 950zM526.56 988L559.47 1007L559.47 1045L526.56 1064L493.65 1045L493.65 1007zM559.47 1045L592.38 1064L592.38 1102L559.47 1121L526.56 1102L526.56 1064zM592.38 -38L625.29 -19L625.29 19L592.38 38L559.47 19L559.47 -19zM625.29 19L658.2 38L658.2 76L625.29 95L592.38 76L592.38 38zM592.38 76L625.29 95L625.29 133L592.38 152L559.47 133L559.47 95zM625.29 133L658.2 152L658.2 190L625.29 209L592.38 190L592.38 152zM592.38 190L625.29 209L625.29 247L592.38 266L559.47 247L559.47 209zM625.29 247L658.2 266L658.2 304L625.29 323L592.38 304L592.38 266zM592.38 304L625.29 323L625.29 361L592.38 380L559.47 361L559.47 323zM625.29 361L658.2 380L658.2 418L625.29 437L592.38 418L592.38 380zM592.38 418L625.29 437L625.29 475L592.38 494L559.47 475L559.47 437zM625.29 475L658.2 494L658.2 532L625.29 551L592.38 532L592.38 494zM592.38 532L625.29 551L625.29 589L592.38 608L559.47 589L559.47 551zM625.29 589L658.2 608L658.2 646L625.29 665L592.38 646L592.38 608zM592.38 646L625.29 665L625.29 703L592.38 722L559.47 703L559.47 665zM625.29 703L658.2 722L658.2 760L625.29 779L592.38 760L592.38 722zM592.38 760L625.29 779L625.29 817L592.38 836L559.47 817L559.47 779zM625.29 817L658.2 836L658.2 874L625.29 893L592.38 874L592.38 836zM592.38 874L625.29 893L625.29 931L592.38 950L559.47 931L559.47 893zM625.29 931L658.2 950L658.2 988L625.29 1007L592.38 988L592.38 950zM592.38 988L625.29 1007L625.29 1045L592.38 1064L559.47 1045L559.47 1007zM625.29 1045L658.2 1064L658.2 1102L625.29 1121L592.38 1102L592.38 1064zM658.2 -38L691.11 -19L691.11 19L658.2 38L625.29 19L625.29 -19zM691.11 19L724.02 38L724.02 76L691.11 95L658.2 76L658.2 38zM658.2 76L691.11 95L691.11 133L658.2 152L625.29 133L625.29 95zM691.11 133L724.02 152L724.02 190L691.11 209L658.2 190L658.2 152zM658.2 190L691.11 209L691.11 247L658.2 266L625.29 247L625.29 209zM691.11 247L724.02 266L724.02 304L691.11 323L658.2 304L658.2 266zM658.2 304L691.11 323L691.11 361L658.2 380L625.29 361L625.29 323zM691.11 361L724.02 380L724.02 418L691.11 437L658.2 418L658.2 380zM658.2 418L691.11 437L691.11 475L658.2 494L625.29 475L625.29 437zM691.11 475L724.02 494L724.02 532L691.11 551L658.2 532L658.2 494zM658.2 532L691.11 551L691.11 589L658.2 608L625.29 589L625.29 551zM691.11 589L724.02 608L724.02 646L691.11 665L658.2 646L658.2 608zM658.2 646L691.11 665L691.11 703L658.2 722L625.29 703L625.29 665zM691.11 703L724.02 722L724.02 760L691.11 779L658.2 760L658.2 722zM658.2 760L691.11 779L691.11 817L658.2 836L625.29 817L625.29 779zM691.11 817L724.02 836L724.02 874L691.11 893L658.2 874L658.2 836zM658.2 874L691.11 893L691.11 931L658.2 950L625.29 931L625.29 893zM691.11 931L724.02 950L724.02 988L691.11 1007L658.2 988L658.2 950zM658.2 988L691.11 1007L691.11 1045L658.2 1064L625.29 1045L625.29 1007zM691.11 1045L724.02 1064L724.02 1102L691.11 1121L658.2 1102L658.2 1064zM724.02 -38L756.93 -19L756.93 19L724.02 38L691.11 19L691.11 -19zM756.93 19L789.84 38L789.84 76L756.93 95L724.02 76L724.02 38zM724.02 76L756.93 95L756.93 133L724.02 152L691.11 133L691.11 95zM756.93 133L789.84 152L789.84 190L756.93 209L724.02 190L724.02 152zM724.02 190L756.93 209L756.93 247L724.02 266L691.11 247L691.11 209zM756.93 247L789.84 266L789.84 304L756.93 323L724.02 304L724.02 266zM724.02 304L756.93 323L756.93 361L724.02 380L691.11 361L691.11 323zM756.93 361L789.84 380L789.84 418L756.93 437L724.02 418L724.02 380zM724.02 418L756.93 437L756.93 475L724.02 494L691.11 475L691.11 437zM756.93 475L789.84 494L789.84 532L756.93 551L724.02 532L724.02 494zM724.02 532L756.93 551L756.93 589L724.02 608L691.11 589L691.11 551zM756.93 589L789.84 608L789.84 646L756.93 665L724.02 646L724.02 608zM724.02 646L756.93 665L756.93 703L724.02 722L691.11 703L691.11 665zM756.93 703L789.84 722L789.84 760L756.93 779L724.02 760L724.02 722zM724.02 760L756.93 779L756.93 817L724.02 836L691.11 817L691.11 779zM756.93 817L789.84 836L789.84 874L756.93 893L724.02 874L724.02 836zM724.02 874L756.93 893L756.93 931L724.02 950L691.11 931L691.11 893zM756.93 931L789.84 950L789.84 988L756.93 1007L724.02 988L724.02 950zM724.02 988L756.93 1007L756.93 1045L724.02 1064L691.11 1045L691.11 1007zM756.93 1045L789.84 1064L789.84 1102L756.93 1121L724.02 1102L724.02 1064zM789.84 -38L822.75 -19L822.75 19L789.84 38L756.93 19L756.93 -19zM822.75 19L855.66 38L855.66 76L822.75 95L789.84 76L789.84 38zM789.84 76L822.75 95L822.75 133L789.84 152L756.93 133L756.93 95zM822.75 133L855.66 152L855.66 190L822.75 209L789.84 190L789.84 152zM789.84 190L822.75 209L822.75 247L789.84 266L756.93 247L756.93 209zM822.75 247L855.66 266L855.66 304L822.75 323L789.84 304L789.84 266zM789.84 304L822.75 323L822.75 361L789.84 380L756.93 361L756.93 323zM822.75 361L855.66 380L855.66 418L822.75 437L789.84 418L789.84 380zM789.84 418L822.75 437L822.75 475L789.84 494L756.93 475L756.93 437zM822.75 475L855.66 494L855.66 532L822.75 551L789.84 532L789.84 494zM789.84 532L822.75 551L822.75 589L789.84 608L756.93 589L756.93 551zM822.75 589L855.66 608L855.66 646L822.75 665L789.84 646L789.84 608zM789.84 646L822.75 665L822.75 703L789.84 722L756.93 703L756.93 665zM822.75 703L855.66 722L855.66 760L822.75 779L789.84 760L789.84 722zM789.84 760L822.75 779L822.75 817L789.84 836L756.93 817L756.93 779zM822.75 817L855.66 836L855.66 874L822.75 893L789.84 874L789.84 836zM789.84 874L822.75 893L822.75 931L789.84 950L756.93 931L756.93 893zM822.75 931L855.66 950L855.66 988L822.75 1007L789.84 988L789.84 950zM789.84 988L822.75 1007L822.75 1045L789.84 1064L756.93 1045L756.93 1007zM822.75 1045L855.66 1064L855.66 1102L822.75 1121L789.84 1102L789.84 1064zM855.66 -38L888.57 -19L888.57 19L855.66 38L822.75 19L822.75 -19zM888.57 19L921.48 38L921.48 76L888.57 95L855.66 76L855.66 38zM855.66 76L888.57 95L888.57 133L855.66 152L822.75 133L822.75 95zM888.57 133L921.48 152L921.48 190L888.57 209L855.66 190L855.66 152zM855.66 190L888.57 209L888.57 247L855.66 266L822.75 247L822.75 209zM888.57 247L921.48 266L921.48 304L888.57 323L855.66 304L855.66 266zM855.66 304L888.57 323L888.57 361L855.66 380L822.75 361L822.75 323zM888.57 361L921.48 380L921.48 418L888.57 437L855.66 418L855.66 380zM855.66 418L888.57 437L888.57 475L855.66 494L822.75 475L822.75 437zM888.57 475L921.48 494L921.48 532L888.57 551L855.66 532L855.66 494zM855.66 532L888.57 551L888.57 589L855.66 608L822.75 589L822.75 551zM888.57 589L921.48 608L921.48 646L888.57 665L855.66 646L855.66 608zM855.66 646L888.57 665L888.57 703L855.66 722L822.75 703L822.75 665zM888.57 703L921.48 722L921.48 760L888.57 779L855.66 760L855.66 722zM855.66 760L888.57 779L888.57 817L855.66 836L822.75 817L822.75 779zM888.57 817L921.48 836L921.48 874L888.57 893L855.66 874L855.66 836zM855.66 874L888.57 893L888.57 931L855.66 950L822.75 931L822.75 893zM888.57 931L921.48 950L921.48 988L888.57 1007L855.66 988L855.66 950zM855.66 988L888.57 1007L888.57 1045L855.66 1064L822.75 1045L822.75 1007zM888.57 1045L921.48 1064L921.48 1102L888.57 1121L855.66 1102L855.66 1064zM921.48 -38L954.39 -19L954.39 19L921.48 38L888.57 19L888.57 -19zM954.39 19L987.3 38L987.3 76L954.39 95L921.48 76L921.48 38zM921.48 76L954.39 95L954.39 133L921.48 152L888.57 133L888.57 95zM954.39 133L987.3 152L987.3 190L954.39 209L921.48 190L921.48 152zM921.48 190L954.39 209L954.39 247L921.48 266L888.57 247L888.57 209zM954.39 247L987.3 266L987.3 304L954.39 323L921.48 304L921.48 266zM921.48 304L954.39 323L954.39 361L921.48 380L888.57 361L888.57 323zM954.39 361L987.3 380L987.3 418L954.39 437L921.48 418L921.48 380zM921.48 418L954.39 437L954.39 475L921.48 494L888.57 475L888.57 437zM954.39 475L987.3 494L987.3 532L954.39 551L921.48 532L921.48 494zM921.48 532L954.39 551L954.39 589L921.48 608L888.57 589L888.57 551zM954.39 589L987.3 608L987.3 646L954.39 665L921.48 646L921.48 608zM921.48 646L954.39 665L954.39 703L921.48 722L888.57 703L888.57 665zM954.39 703L987.3 722L987.3 760L954.39 779L921.48 760L921.48 722zM921.48 760L954.39 779L954.39 817L921.48 836L888.57 817L888.57 779zM954.39 817L987.3 836L987.3 874L954.39 893L921.48 874L921.48 836zM921.48 874L954.39 893L954.39 931L921.48 950L888.57 931L888.57 893zM954.39 931L987.3 950L987.3 988L954.39 1007L921.48 988L921.48 950zM921.48 988L954.39 1007L954.39 1045L921.48 1064L888.57 1045L888.57 1007zM954.39 1045L987.3 1064L987.3 1102L954.39 1121L921.48 1102L921.48 1064zM987.3 -38L1020.21 -19L1020.21 19L987.3 38L954.39 19L954.39 -19zM1020.21 19L1053.12 38L1053.12 76L1020.21 95L987.3 76L987.3 38zM987.3 76L1020.21 95L1020.21 133L987.3 152L954.39 133L954.39 95zM1020.21 133L1053.12 152L1053.12 190L1020.21 209L987.3 190L987.3 152zM987.3 190L1020.21 209L1020.21 247L987.3 266L954.39 247L954.39 209zM1020.21 247L1053.12 266L1053.12 304L1020.21 323L987.3 304L987.3 266zM987.3 304L1020.21 323L1020.21 361L987.3 380L954.39 361L954.39 323zM1020.21 361L1053.12 380L1053.12 418L1020.21 437L987.3 418L987.3 380zM987.3 418L1020.21 437L1020.21 475L987.3 494L954.39 475L954.39 437zM1020.21 475L1053.12 494L1053.12 532L1020.21 551L987.3 532L987.3 494zM987.3 532L1020.21 551L1020.21 589L987.3 608L954.39 589L954.39 551zM1020.21 589L1053.12 608L1053.12 646L1020.21 665L987.3 646L987.3 608zM987.3 646L1020.21 665L1020.21 703L987.3 722L954.39 703L954.39 665zM1020.21 703L1053.12 722L1053.12 760L1020.21 779L987.3 760L987.3 722zM987.3 760L1020.21 779L1020.21 817L987.3 836L954.39 817L954.39 779zM1020.21 817L1053.12 836L1053.12 874L1020.21 893L987.3 874L987.3 836zM987.3 874L1020.21 893L1020.21 931L987.3 950L954.39 931L954.39 893zM1020.21 931L1053.12 950L1053.12 988L1020.21 1007L987.3 988L987.3 950zM987.3 988L1020.21 1007L1020.21 1045L987.3 1064L954.39 1045L954.39 1007zM1020.21 1045L1053.12 1064L1053.12 1102L1020.21 1121L987.3 1102L987.3 1064zM1053.12 -38L1086.03 -19L1086.03 19L1053.12 38L1020.21 19L1020.21 -19zM1086.03 19L1118.94 38L1118.94 76L1086.03 95L1053.12 76L1053.12 38zM1053.12 76L1086.03 95L1086.03 133L1053.12 152L1020.21 133L1020.21 95zM1086.03 133L1118.94 152L1118.94 190L1086.03 209L1053.12 190L1053.12 152zM1053.12 190L1086.03 209L1086.03 247L1053.12 266L1020.21 247L1020.21 209zM1086.03 247L1118.94 266L1118.94 304L1086.03 323L1053.12 304L1053.12 266zM1053.12 304L1086.03 323L1086.03 361L1053.12 380L1020.21 361L1020.21 323zM1086.03 361L1118.94 380L1118.94 418L1086.03 437L1053.12 418L1053.12 380zM1053.12 418L1086.03 437L1086.03 475L1053.12 494L1020.21 475L1020.21 437zM1086.03 475L1118.94 494L1118.94 532L1086.03 551L1053.12 532L1053.12 494zM1053.12 532L1086.03 551L1086.03 589L1053.12 608L1020.21 589L1020.21 551zM1086.03 589L1118.94 608L1118.94 646L1086.03 665L1053.12 646L1053.12 608zM1053.12 646L1086.03 665L1086.03 703L1053.12 722L1020.21 703L1020.21 665zM1086.03 703L1118.94 722L1118.94 760L1086.03 779L1053.12 760L1053.12 722zM1053.12 760L1086.03 779L1086.03 817L1053.12 836L1020.21 817L1020.21 779zM1086.03 817L1118.94 836L1118.94 874L1086.03 893L1053.12 874L1053.12 836zM1053.12 874L1086.03 893L1086.03 931L1053.12 950L1020.21 931L1020.21 893zM1086.03 931L1118.94 950L1118.94 988L1086.03 1007L1053.12 988L1053.12 950zM1053.12 988L1086.03 1007L1086.03 1045L1053.12 1064L1020.21 1045L1020.21 1007zM1086.03 1045L1118.94 1064L1118.94 1102L1086.03 1121L1053.12 1102L1053.12 1064zM1118.94 -38L1151.85 -19L1151.85 19L1118.94 38L1086.03 19L1086.03 -19zM1151.85 19L1184.76 38L1184.76 76L1151.85 95L1118.94 76L1118.94 38zM1118.94 76L1151.85 95L1151.85 133L1118.94 152L1086.03 133L1086.03 95zM1151.85 133L1184.76 152L1184.76 190L1151.85 209L1118.94 190L1118.94 152zM1118.94 190L1151.85 209L1151.85 247L1118.94 266L1086.03 247L1086.03 209zM1151.85 247L1184.76 266L1184.76 304L1151.85 323L1118.94 304L1118.94 266zM1118.94 304L1151.85 323L1151.85 361L1118.94 380L1086.03 361L1086.03 323zM1151.85 361L1184.76 380L1184.76 418L1151.85 437L1118.94 418L1118.94 380zM1118.94 418L1151.85 437L1151.85 475L1118.94 494L1086.03 475L1086.03 437zM1151.85 475L1184.76 494L1184.76 532L1151.85 551L1118.94 532L1118.94 494zM1118.94 532L1151.85 551L1151.85 589L1118.94 608L1086.03 589L1086.03 551zM1151.85 589L1184.76 608L1184.76 646L1151.85 665L1118.94 646L1118.94 608zM1118.94 646L1151.85 665L1151.85 703L1118.94 722L1086.03 703L1086.03 665zM1151.85 703L1184.76 722L1184.76 760L1151.85 779L1118.94 760L1118.94 722zM1118.94 760L1151.85 779L1151.85 817L1118.94 836L1086.03 817L1086.03 779zM1151.85 817L1184.76 836L1184.76 874L1151.85 893L1118.94 874L1118.94 836zM1118.94 874L1151.85 893L1151.85 931L1118.94 950L1086.03 931L1086.03 893zM1151.85 931L1184.76 950L1184.76 988L1151.85 1007L1118.94 988L1118.94 950zM1118.94 988L1151.85 1007L1151.85 1045L1118.94 1064L1086.03 1045L1086.03 1007zM1151.85 1045L1184.76 1064L1184.76 1102L1151.85 1121L1118.94 1102L1118.94 1064zM1184.76 -38L1217.67 -19L1217.67 19L1184.76 38L1151.85 19L1151.85 -19zM1217.67 19L1250.58 38L1250.58 76L1217.67 95L1184.76 76L1184.76 38zM1184.76 76L1217.67 95L1217.67 133L1184.76 152L1151.85 133L1151.85 95zM1217.67 133L1250.58 152L1250.58 190L1217.67 209L1184.76 190L1184.76 152zM1184.76 190L1217.67 209L1217.67 247L1184.76 266L1151.85 247L1151.85 209zM1217.67 247L1250.58 266L1250.58 304L1217.67 323L1184.76 304L1184.76 266zM1184.76 304L1217.67 323L1217.67 361L1184.76 380L1151.85 361L1151.85 323zM1217.67 361L1250.58 380L1250.58 418L1217.67 437L1184.76 418L1184.76 380zM1184.76 418L1217.67 437L1217.67 475L1184.76 494L1151.85 475L1151.85 437zM1217.67 475L1250.58 494L1250.58 532L1217.67 551L1184.76 532L1184.76 494zM1184.76 532L1217.67 551L1217.67 589L1184.76 608L1151.85 589L1151.85 551zM1217.67 589L1250.58 608L1250.58 646L1217.67 665L1184.76 646L1184.76 608zM1184.76 646L1217.67 665L1217.67 703L1184.76 722L1151.85 703L1151.85 665zM1217.67 703L1250.58 722L1250.58 760L1217.67 779L1184.76 760L1184.76 722zM1184.76 760L1217.67 779L1217.67 817L1184.76 836L1151.85 817L1151.85 779zM1217.67 817L1250.58 836L1250.58 874L1217.67 893L1184.76 874L1184.76 836zM1184.76 874L1217.67 893L1217.67 931L1184.76 950L1151.85 931L1151.85 893zM1217.67 931L1250.58 950L1250.58 988L1217.67 1007L1184.76 988L1184.76 950zM1184.76 988L1217.67 1007L1217.67 1045L1184.76 1064L1151.85 1045L1151.85 1007zM1217.67 1045L1250.58 1064L1250.58 1102L1217.67 1121L1184.76 1102L1184.76 1064zM1250.58 -38L1283.49 -19L1283.49 19L1250.58 38L1217.67 19L1217.67 -19zM1283.49 19L1316.4 38L1316.4 76L1283.49 95L1250.58 76L1250.58 38zM1250.58 76L1283.49 95L1283.49 133L1250.58 152L1217.67 133L1217.67 95zM1283.49 133L1316.4 152L1316.4 190L1283.49 209L1250.58 190L1250.58 152zM1250.58 190L1283.49 209L1283.49 247L1250.58 266L1217.67 247L1217.67 209zM1283.49 247L1316.4 266L1316.4 304L1283.49 323L1250.58 304L1250.58 266zM1250.58 304L1283.49 323L1283.49 361L1250.58 380L1217.67 361L1217.67 323zM1283.49 361L1316.4 380L1316.4 418L1283.49 437L1250.58 418L1250.58 380zM1250.58 418L1283.49 437L1283.49 475L1250.58 494L1217.67 475L1217.67 437zM1283.49 475L1316.4 494L1316.4 532L1283.49 551L1250.58 532L1250.58 494zM1250.58 532L1283.49 551L1283.49 589L1250.58 608L1217.67 589L1217.67 551zM1283.49 589L1316.4 608L1316.4 646L1283.49 665L1250.58 646L1250.58 608zM1250.58 646L1283.49 665L1283.49 703L1250.58 722L1217.67 703L1217.67 665zM1283.49 703L1316.4 722L1316.4 760L1283.49 779L1250.58 760L1250.58 722zM1250.58 760L1283.49 779L1283.49 817L1250.58 836L1217.67 817L1217.67 779zM1283.49 817L1316.4 836L1316.4 874L1283.49 893L1250.58 874L1250.58 836zM1250.58 874L1283.49 893L1283.49 931L1250.58 950L1217.67 931L1217.67 893zM1283.49 931L1316.4 950L1316.4 988L1283.49 1007L1250.58 988L1250.58 950zM1250.58 988L1283.49 1007L1283.49 1045L1250.58 1064L1217.67 1045L1217.67 1007zM1283.49 1045L1316.4 1064L1316.4 1102L1283.49 1121L1250.58 1102L1250.58 1064zM1316.4 -38L1349.31 -19L1349.31 19L1316.4 38L1283.49 19L1283.49 -19zM1349.31 19L1382.22 38L1382.22 76L1349.31 95L1316.4 76L1316.4 38zM1316.4 76L1349.31 95L1349.31 133L1316.4 152L1283.49 133L1283.49 95zM1349.31 133L1382.22 152L1382.22 190L1349.31 209L1316.4 190L1316.4 152zM1316.4 190L1349.31 209L1349.31 247L1316.4 266L1283.49 247L1283.49 209zM1349.31 247L1382.22 266L1382.22 304L1349.31 323L1316.4 304L1316.4 266zM1316.4 304L1349.31 323L1349.31 361L1316.4 380L1283.49 361L1283.49 323zM1349.31 361L1382.22 380L1382.22 418L1349.31 437L1316.4 418L1316.4 380zM1316.4 418L1349.31 437L1349.31 475L1316.4 494L1283.49 475L1283.49 437zM1349.31 475L1382.22 494L1382.22 532L1349.31 551L1316.4 532L1316.4 494zM1316.4 532L1349.31 551L1349.31 589L1316.4 608L1283.49 589L1283.49 551zM1349.31 589L1382.22 608L1382.22 646L1349.31 665L1316.4 646L1316.4 608zM1316.4 646L1349.31 665L1349.31 703L1316.4 722L1283.49 703L1283.49 665zM1349.31 703L1382.22 722L1382.22 760L1349.31 779L1316.4 760L1316.4 722zM1316.4 760L1349.31 779L1349.31 817L1316.4 836L1283.49 817L1283.49 779zM1349.31 817L1382.22 836L1382.22 874L1349.31 893L1316.4 874L1316.4 836zM1316.4 874L1349.31 893L1349.31 931L1316.4 950L1283.49 931L1283.49 893zM1349.31 931L1382.22 950L1382.22 988L1349.31 1007L1316.4 988L1316.4 950zM1316.4 988L1349.31 1007L1349.31 1045L1316.4 1064L1283.49 1045L1283.49 1007zM1349.31 1045L1382.22 1064L1382.22 1102L1349.31 1121L1316.4 1102L1316.4 1064zM1382.22 -38L1415.13 -19L1415.13 19L1382.22 38L1349.31 19L1349.31 -19zM1415.13 19L1448.04 38L1448.04 76L1415.13 95L1382.22 76L1382.22 38zM1382.22 76L1415.13 95L1415.13 133L1382.22 152L1349.31 133L1349.31 95zM1415.13 133L1448.04 152L1448.04 190L1415.13 209L1382.22 190L1382.22 152zM1382.22 190L1415.13 209L1415.13 247L1382.22 266L1349.31 247L1349.31 209zM1415.13 247L1448.04 266L1448.04 304L1415.13 323L1382.22 304L1382.22 266zM1382.22 304L1415.13 323L1415.13 361L1382.22 380L1349.31 361L1349.31 323zM1415.13 361L1448.04 380L1448.04 418L1415.13 437L1382.22 418L1382.22 380zM1382.22 418L1415.13 437L1415.13 475L1382.22 494L1349.31 475L1349.31 437zM1415.13 475L1448.04 494L1448.04 532L1415.13 551L1382.22 532L1382.22 494zM1382.22 532L1415.13 551L1415.13 589L1382.22 608L1349.31 589L1349.31 551zM1415.13 589L1448.04 608L1448.04 646L1415.13 665L1382.22 646L1382.22 608zM1382.22 646L1415.13 665L1415.13 703L1382.22 722L1349.31 703L1349.31 665zM1415.13 703L1448.04 722L1448.04 760L1415.13 779L1382.22 760L1382.22 722zM1382.22 760L1415.13 779L1415.13 817L1382.22 836L1349.31 817L1349.31 779zM1415.13 817L1448.04 836L1448.04 874L1415.13 893L1382.22 874L1382.22 836zM1382.22 874L1415.13 893L1415.13 931L1382.22 950L1349.31 931L1349.31 893zM1415.13 931L1448.04 950L1448.04 988L1415.13 1007L1382.22 988L1382.22 950zM1382.22 988L1415.13 1007L1415.13 1045L1382.22 1064L1349.31 1045L1349.31 1007zM1415.13 1045L1448.04 1064L1448.04 1102L1415.13 1121L1382.22 1102L1382.22 1064zM1448.04 -38L1480.95 -19L1480.95 19L1448.04 38L1415.13 19L1415.13 -19zM1480.95 19L1513.86 38L1513.86 76L1480.95 95L1448.04 76L1448.04 38zM1448.04 76L1480.95 95L1480.95 133L1448.04 152L1415.13 133L1415.13 95zM1480.95 133L1513.86 152L1513.86 190L1480.95 209L1448.04 190L1448.04 152zM1448.04 190L1480.95 209L1480.95 247L1448.04 266L1415.13 247L1415.13 209zM1480.95 247L1513.86 266L1513.86 304L1480.95 323L1448.04 304L1448.04 266zM1448.04 304L1480.95 323L1480.95 361L1448.04 380L1415.13 361L1415.13 323zM1480.95 361L1513.86 380L1513.86 418L1480.95 437L1448.04 418L1448.04 380zM1448.04 418L1480.95 437L1480.95 475L1448.04 494L1415.13 475L1415.13 437zM1480.95 475L1513.86 494L1513.86 532L1480.95 551L1448.04 532L1448.04 494zM1448.04 532L1480.95 551L1480.95 589L1448.04 608L1415.13 589L1415.13 551zM1480.95 589L1513.86 608L1513.86 646L1480.95 665L1448.04 646L1448.04 608zM1448.04 646L1480.95 665L1480.95 703L1448.04 722L1415.13 703L1415.13 665zM1480.95 703L1513.86 722L1513.86 760L1480.95 779L1448.04 760L1448.04 722zM1448.04 760L1480.95 779L1480.95 817L1448.04 836L1415.13 817L1415.13 779zM1480.95 817L1513.86 836L1513.86 874L1480.95 893L1448.04 874L1448.04 836zM1448.04 874L1480.95 893L1480.95 931L1448.04 950L1415.13 931L1415.13 893zM1480.95 931L1513.86 950L1513.86 988L1480.95 1007L1448.04 988L1448.04 950zM1448.04 988L1480.95 1007L1480.95 1045L1448.04 1064L1415.13 1045L1415.13 1007zM1480.95 1045L1513.86 1064L1513.86 1102L1480.95 1121L1448.04 1102L1448.04 1064zM1513.86 -38L1546.77 -19L1546.77 19L1513.86 38L1480.95 19L1480.95 -19zM1546.77 19L1579.68 38L1579.68 76L1546.77 95L1513.86 76L1513.86 38zM1513.86 76L1546.77 95L1546.77 133L1513.86 152L1480.95 133L1480.95 95zM1546.77 133L1579.68 152L1579.68 190L1546.77 209L1513.86 190L1513.86 152zM1513.86 190L1546.77 209L1546.77 247L1513.86 266L1480.95 247L1480.95 209zM1546.77 247L1579.68 266L1579.68 304L1546.77 323L1513.86 304L1513.86 266zM1513.86 304L1546.77 323L1546.77 361L1513.86 380L1480.95 361L1480.95 323zM1546.77 361L1579.68 380L1579.68 418L1546.77 437L1513.86 418L1513.86 380zM1513.86 418L1546.77 437L1546.77 475L1513.86 494L1480.95 475L1480.95 437zM1546.77 475L1579.68 494L1579.68 532L1546.77 551L1513.86 532L1513.86 494zM1513.86 532L1546.77 551L1546.77 589L1513.86 608L1480.95 589L1480.95 551zM1546.77 589L1579.68 608L1579.68 646L1546.77 665L1513.86 646L1513.86 608zM1513.86 646L1546.77 665L1546.77 703L1513.86 722L1480.95 703L1480.95 665zM1546.77 703L1579.68 722L1579.68 760L1546.77 779L1513.86 760L1513.86 722zM1513.86 760L1546.77 779L1546.77 817L1513.86 836L1480.95 817L1480.95 779zM1546.77 817L1579.68 836L1579.68 874L1546.77 893L1513.86 874L1513.86 836zM1513.86 874L1546.77 893L1546.77 931L1513.86 950L1480.95 931L1480.95 893zM1546.77 931L1579.68 950L1579.68 988L1546.77 1007L1513.86 988L1513.86 950zM1513.86 988L1546.77 1007L1546.77 1045L1513.86 1064L1480.95 1045L1480.95 1007zM1546.77 1045L1579.68 1064L1579.68 1102L1546.77 1121L1513.86 1102L1513.86 1064zM1579.68 -38L1612.59 -19L1612.59 19L1579.68 38L1546.77 19L1546.77 -19zM1612.59 19L1645.5 38L1645.5 76L1612.59 95L1579.68 76L1579.68 38zM1579.68 76L1612.59 95L1612.59 133L1579.68 152L1546.77 133L1546.77 95zM1612.59 133L1645.5 152L1645.5 190L1612.59 209L1579.68 190L1579.68 152zM1579.68 190L1612.59 209L1612.59 247L1579.68 266L1546.77 247L1546.77 209zM1612.59 247L1645.5 266L1645.5 304L1612.59 323L1579.68 304L1579.68 266zM1579.68 304L1612.59 323L1612.59 361L1579.68 380L1546.77 361L1546.77 323zM1612.59 361L1645.5 380L1645.5 418L1612.59 437L1579.68 418L1579.68 380zM1579.68 418L1612.59 437L1612.59 475L1579.68 494L1546.77 475L1546.77 437zM1612.59 475L1645.5 494L1645.5 532L1612.59 551L1579.68 532L1579.68 494zM1579.68 532L1612.59 551L1612.59 589L1579.68 608L1546.77 589L1546.77 551zM1612.59 589L1645.5 608L1645.5 646L1612.59 665L1579.68 646L1579.68 608zM1579.68 646L1612.59 665L1612.59 703L1579.68 722L1546.77 703L1546.77 665zM1612.59 703L1645.5 722L1645.5 760L1612.59 779L1579.68 760L1579.68 722zM1579.68 760L1612.59 779L1612.59 817L1579.68 836L1546.77 817L1546.77 779zM1612.59 817L1645.5 836L1645.5 874L1612.59 893L1579.68 874L1579.68 836zM1579.68 874L1612.59 893L1612.59 931L1579.68 950L1546.77 931L1546.77 893zM1612.59 931L1645.5 950L1645.5 988L1612.59 1007L1579.68 988L1579.68 950zM1579.68 988L1612.59 1007L1612.59 1045L1579.68 1064L1546.77 1045L1546.77 1007zM1612.59 1045L1645.5 1064L1645.5 1102L1612.59 1121L1579.68 1102L1579.68 1064zM1645.5 -38L1678.4 -19L1678.4 19L1645.5 38L1612.59 19L1612.59 -19zM1678.4 19L1711.31 38L1711.31 76L1678.4 95L1645.5 76L1645.5 38zM1645.5 76L1678.4 95L1678.4 133L1645.5 152L1612.59 133L1612.59 95zM1678.4 133L1711.31 152L1711.31 190L1678.4 209L1645.5 190L1645.5 152zM1645.5 190L1678.4 209L1678.4 247L1645.5 266L1612.59 247L1612.59 209zM1678.4 247L1711.31 266L1711.31 304L1678.4 323L1645.5 304L1645.5 266zM1645.5 304L1678.4 323L1678.4 361L1645.5 380L1612.59 361L1612.59 323zM1678.4 361L1711.31 380L1711.31 418L1678.4 437L1645.5 418L1645.5 380zM1645.5 418L1678.4 437L1678.4 475L1645.5 494L1612.59 475L1612.59 437zM1678.4 475L1711.31 494L1711.31 532L1678.4 551L1645.5 532L1645.5 494zM1645.5 532L1678.4 551L1678.4 589L1645.5 608L1612.59 589L1612.59 551zM1678.4 589L1711.31 608L1711.31 646L1678.4 665L1645.5 646L1645.5 608zM1645.5 646L1678.4 665L1678.4 703L1645.5 722L1612.59 703L1612.59 665zM1678.4 703L1711.31 722L1711.31 760L1678.4 779L1645.5 760L1645.5 722zM1645.5 760L1678.4 779L1678.4 817L1645.5 836L1612.59 817L1612.59 779zM1678.4 817L1711.31 836L1711.31 874L1678.4 893L1645.5 874L1645.5 836zM1645.5 874L1678.4 893L1678.4 931L1645.5 950L1612.59 931L1612.59 893zM1678.4 931L1711.31 950L1711.31 988L1678.4 1007L1645.5 988L1645.5 950zM1645.5 988L1678.4 1007L1678.4 1045L1645.5 1064L1612.59 1045L1612.59 1007zM1678.4 1045L1711.31 1064L1711.31 1102L1678.4 1121L1645.5 1102L1645.5 1064zM1711.31 -38L1744.22 -19L1744.22 19L1711.31 38L1678.4 19L1678.4 -19zM1744.22 19L1777.13 38L1777.13 76L1744.22 95L1711.31 76L1711.31 38zM1711.31 76L1744.22 95L1744.22 133L1711.31 152L1678.4 133L1678.4 95zM1744.22 133L1777.13 152L1777.13 190L1744.22 209L1711.31 190L1711.31 152zM1711.31 190L1744.22 209L1744.22 247L1711.31 266L1678.4 247L1678.4 209zM1744.22 247L1777.13 266L1777.13 304L1744.22 323L1711.31 304L1711.31 266zM1711.31 304L1744.22 323L1744.22 361L1711.31 380L1678.4 361L1678.4 323zM1744.22 361L1777.13 380L1777.13 418L1744.22 437L1711.31 418L1711.31 380zM1711.31 418L1744.22 437L1744.22 475L1711.31 494L1678.4 475L1678.4 437zM1744.22 475L1777.13 494L1777.13 532L1744.22 551L1711.31 532L1711.31 494zM1711.31 532L1744.22 551L1744.22 589L1711.31 608L1678.4 589L1678.4 551zM1744.22 589L1777.13 608L1777.13 646L1744.22 665L1711.31 646L1711.31 608zM1711.31 646L1744.22 665L1744.22 703L1711.31 722L1678.4 703L1678.4 665zM1744.22 703L1777.13 722L1777.13 760L1744.22 779L1711.31 760L1711.31 722zM1711.31 760L1744.22 779L1744.22 817L1711.31 836L1678.4 817L1678.4 779zM1744.22 817L1777.13 836L1777.13 874L1744.22 893L1711.31 874L1711.31 836zM1711.31 874L1744.22 893L1744.22 931L1711.31 950L1678.4 931L1678.4 893zM1744.22 931L1777.13 950L1777.13 988L1744.22 1007L1711.31 988L1711.31 950zM1711.31 988L1744.22 1007L1744.22 1045L1711.31 1064L1678.4 1045L1678.4 1007zM1744.22 1045L1777.13 1064L1777.13 1102L1744.22 1121L1711.31 1102L1711.31 1064zM1777.13 -38L1810.04 -19L1810.04 19L1777.13 38L1744.22 19L1744.22 -19zM1810.04 19L1842.95 38L1842.95 76L1810.04 95L1777.13 76L1777.13 38zM1777.13 76L1810.04 95L1810.04 133L1777.13 152L1744.22 133L1744.22 95zM1810.04 133L1842.95 152L1842.95 190L1810.04 209L1777.13 190L1777.13 152zM1777.13 190L1810.04 209L1810.04 247L1777.13 266L1744.22 247L1744.22 209zM1810.04 247L1842.95 266L1842.95 304L1810.04 323L1777.13 304L1777.13 266zM1777.13 304L1810.04 323L1810.04 361L1777.13 380L1744.22 361L1744.22 323zM1810.04 361L1842.95 380L1842.95 418L1810.04 437L1777.13 418L1777.13 380zM1777.13 418L1810.04 437L1810.04 475L1777.13 494L1744.22 475L1744.22 437zM1810.04 475L1842.95 494L1842.95 532L1810.04 551L1777.13 532L1777.13 494zM1777.13 532L1810.04 551L1810.04 589L1777.13 608L1744.22 589L1744.22 551zM1810.04 589L1842.95 608L1842.95 646L1810.04 665L1777.13 646L1777.13 608zM1777.13 646L1810.04 665L1810.04 703L1777.13 722L1744.22 703L1744.22 665zM1810.04 703L1842.95 722L1842.95 760L1810.04 779L1777.13 760L1777.13 722zM1777.13 760L1810.04 779L1810.04 817L1777.13 836L1744.22 817L1744.22 779zM1810.04 817L1842.95 836L1842.95 874L1810.04 893L1777.13 874L1777.13 836zM1777.13 874L1810.04 893L1810.04 931L1777.13 950L1744.22 931L1744.22 893zM1810.04 931L1842.95 950L1842.95 988L1810.04 1007L1777.13 988L1777.13 950zM1777.13 988L1810.04 1007L1810.04 1045L1777.13 1064L1744.22 1045L1744.22 1007zM1810.04 1045L1842.95 1064L1842.95 1102L1810.04 1121L1777.13 1102L1777.13 1064zM1842.95 -38L1875.86 -19L1875.86 19L1842.95 38L1810.04 19L1810.04 -19zM1875.86 19L1908.77 38L1908.77 76L1875.86 95L1842.95 76L1842.95 38zM1842.95 76L1875.86 95L1875.86 133L1842.95 152L1810.04 133L1810.04 95zM1875.86 133L1908.77 152L1908.77 190L1875.86 209L1842.95 190L1842.95 152zM1842.95 190L1875.86 209L1875.86 247L1842.95 266L1810.04 247L1810.04 209zM1875.86 247L1908.77 266L1908.77 304L1875.86 323L1842.95 304L1842.95 266zM1842.95 304L1875.86 323L1875.86 361L1842.95 380L1810.04 361L1810.04 323zM1875.86 361L1908.77 380L1908.77 418L1875.86 437L1842.95 418L1842.95 380zM1842.95 418L1875.86 437L1875.86 475L1842.95 494L1810.04 475L1810.04 437zM1875.86 475L1908.77 494L1908.77 532L1875.86 551L1842.95 532L1842.95 494zM1842.95 532L1875.86 551L1875.86 589L1842.95 608L1810.04 589L1810.04 551zM1875.86 589L1908.77 608L1908.77 646L1875.86 665L1842.95 646L1842.95 608zM1842.95 646L1875.86 665L1875.86 703L1842.95 722L1810.04 703L1810.04 665zM1875.86 703L1908.77 722L1908.77 760L1875.86 779L1842.95 760L1842.95 722zM1842.95 760L1875.86 779L1875.86 817L1842.95 836L1810.04 817L1810.04 779zM1875.86 817L1908.77 836L1908.77 874L1875.86 893L1842.95 874L1842.95 836zM1842.95 874L1875.86 893L1875.86 931L1842.95 950L1810.04 931L1810.04 893zM1875.86 931L1908.77 950L1908.77 988L1875.86 1007L1842.95 988L1842.95 950zM1842.95 988L1875.86 1007L1875.86 1045L1842.95 1064L1810.04 1045L1810.04 1007zM1875.86 1045L1908.77 1064L1908.77 1102L1875.86 1121L1842.95 1102L1842.95 1064zM1908.77 -38L1941.68 -19L1941.68 19L1908.77 38L1875.86 19L1875.86 -19zM1941.68 19L1974.59 38L1974.59 76L1941.68 95L1908.77 76L1908.77 38zM1908.77 76L1941.68 95L1941.68 133L1908.77 152L1875.86 133L1875.86 95zM1941.68 133L1974.59 152L1974.59 190L1941.68 209L1908.77 190L1908.77 152zM1908.77 190L1941.68 209L1941.68 247L1908.77 266L1875.86 247L1875.86 209zM1941.68 247L1974.59 266L1974.59 304L1941.68 323L1908.77 304L1908.77 266zM1908.77 304L1941.68 323L1941.68 361L1908.77 380L1875.86 361L1875.86 323zM1941.68 361L1974.59 380L1974.59 418L1941.68 437L1908.77 418L1908.77 380zM1908.77 418L1941.68 437L1941.68 475L1908.77 494L1875.86 475L1875.86 437zM1941.68 475L1974.59 494L1974.59 532L1941.68 551L1908.77 532L1908.77 494zM1908.77 532L1941.68 551L1941.68 589L1908.77 608L1875.86 589L1875.86 551zM1941.68 589L1974.59 608L1974.59 646L1941.68 665L1908.77 646L1908.77 608zM1908.77 646L1941.68 665L1941.68 703L1908.77 722L1875.86 703L1875.86 665zM1941.68 703L1974.59 722L1974.59 760L1941.68 779L1908.77 760L1908.77 722zM1908.77 760L1941.68 779L1941.68 817L1908.77 836L1875.86 817L1875.86 779zM1941.68 817L1974.59 836L1974.59 874L1941.68 893L1908.77 874L1908.77 836zM1908.77 874L1941.68 893L1941.68 931L1908.77 950L1875.86 931L1875.86 893zM1941.68 931L1974.59 950L1974.59 988L1941.68 1007L1908.77 988L1908.77 950zM1908.77 988L1941.68 1007L1941.68 1045L1908.77 1064L1875.86 1045L1875.86 1007zM1941.68 1045L1974.59 1064L1974.59 1102L1941.68 1121L1908.77 1102L1908.77 1064z" stroke="rgba(75, 75, 75, 0.1)" stroke-width="2"></path><path d="M119.28 423.77L292.49 523.77L292.49 723.77L119.28 823.77L-53.93 723.77L-53.93 523.77zM292.49 723.77L465.7 823.77L465.7 1023.77L292.49 1123.77L119.28 1023.77L119.28 823.77zM465.7 -176.23L638.91 -76.23L638.91 123.77L465.7 223.77L292.49 123.77L292.49 -76.23zM638.91 123.77L812.12 223.77L812.12 423.77L638.91 523.77L465.7 423.77L465.7 223.77zM638.91 723.77L812.12 823.77L812.12 1023.77L638.91 1123.77L465.7 1023.77L465.7 823.77zM812.12 423.77L985.33 523.77L985.33 723.77L812.12 823.77L638.91 723.77L638.91 523.77zM1158.54 -176.23L1331.75 -76.23L1331.75 123.77L1158.54 223.77L985.33 123.77L985.33 -76.23zM1158.54 423.77L1331.75 523.77L1331.75 723.77L1158.54 823.77L985.33 723.77L985.33 523.77zM1504.96 -176.23L1678.17 -76.23L1678.17 123.77L1504.96 223.77L1331.75 123.77L1331.75 -76.23zM1678.17 123.77L1851.38 223.77L1851.38 423.77L1678.17 523.77L1504.96 423.77L1504.96 223.77zM1504.96 423.77L1678.17 523.77L1678.17 723.77L1504.96 823.77L1331.75 723.77L1331.75 523.77zM2024.59 123.77L2197.8 223.77L2197.8 423.77L2024.59 523.77L1851.38 423.77L1851.38 223.77z" stroke="url(#SvgjsLinearGradient1031)" stroke-width="2"></path></g><defs><mask id="SvgjsMask1030"><rect width="1920" height="1080" fill="#ffffff"></rect></mask><linearGradient x1="1709.9520000000002" y1="1289.952" x2="210.048" y2="-209.95200000000003" gradientUnits="userSpaceOnUse" id="SvgjsLinearGradient1031"><stop stop-color="rgba(21, 136, 255, 1)" offset="0"></stop><stop stop-color="rgba(205, 0, 255, 1)" offset="1"></stop></linearGradient></defs></svg>